<svg width="24" height="24" viewBox="0 0 24 24" fill="none" xmlns="http://www.w3.org/2000/svg">
<path fill-rule="evenodd" clip-rule="evenodd" d="M8 13L13.664 13L12.414 14.31C12.033 14.709 12.048 15.342 12.447 15.724C12.847 16.104 13.479 16.09 13.861 15.69L16.724 12.69C16.762 12.65 16.779 12.6 16.81 12.555C16.851 12.496 16.897 12.442 16.924 12.374C16.961 12.283 16.973 12.188 16.981 12.091C16.984 12.06 17 12.032 17 12C17 11.998 16.999 11.997 16.999 11.995C16.998 11.865 16.973 11.736 16.922 11.614C16.872 11.493 16.798 11.384 16.707 11.292L13.707 8.293C13.512 8.098 13.256 8 13 8C12.744 8 12.488 8.098 12.293 8.293C11.902 8.684 11.902 9.316 12.293 9.707L13.586 11L8 11C7.448 11 7 11.448 7 12C7 12.552 7.448 13 8 13ZM12 4C16.411 4 20 7.589 20 12C20 16.411 16.411 20 12 20C7.589 20 4 16.411 4 12C4 7.589 7.589 4 12 4ZM12 22C17.514 22 22 17.514 22 12C22 6.486 17.514 2 12 2C6.486 2 2 6.486 2 12C2 17.514 6.486 22 12 22Z" fill="#242525"/>
<mask id="mask0_16581_721" style="mask-type:luminance" maskUnits="userSpaceOnUse" x="2" y="2" width="20" height="20">
<path fill-rule="evenodd" clip-rule="evenodd" d="M8 13L13.664 13L12.414 14.31C12.033 14.709 12.048 15.342 12.447 15.724C12.847 16.104 13.479 16.09 13.861 15.69L16.724 12.69C16.762 12.65 16.779 12.6 16.81 12.555C16.851 12.496 16.897 12.442 16.924 12.374C16.961 12.283 16.973 12.188 16.981 12.091C16.984 12.06 17 12.032 17 12C17 11.998 16.999 11.997 16.999 11.995C16.998 11.865 16.973 11.736 16.922 11.614C16.872 11.493 16.798 11.384 16.707 11.292L13.707 8.293C13.512 8.098 13.256 8 13 8C12.744 8 12.488 8.098 12.293 8.293C11.902 8.684 11.902 9.316 12.293 9.707L13.586 11L8 11C7.448 11 7 11.448 7 12C7 12.552 7.448 13 8 13ZM12 4C16.411 4 20 7.589 20 12C20 16.411 16.411 20 12 20C7.589 20 4 16.411 4 12C4 7.589 7.589 4 12 4ZM12 22C17.514 22 22 17.514 22 12C22 6.486 17.514 2 12 2C6.486 2 2 6.486 2 12C2 17.514 6.486 22 12 22Z" fill="white"/>
</mask>
<g mask="url(#mask0_16581_721)">
<rect x="24" y="24" width="24" height="24" transform="rotate(-180 24 24)" fill="#00978C"/>
</g>
</svg>
